PathFileType	4	(X/Y/Z)	C:/Users/opensim2020/Desktop/walking_exp_matlab/subject01_walking14_straight_01.trc	
DataRate	CameraRate	NumFrames	NumMarkers	Units	OrigDataRate	OrigDataStartFrame	OrigNumFrames	
100.00	100.00	5	42	mm	100.00	744	106	
Frame#	Time	LFHD			RFHD			LBHD			RBHD			C7			T10			CLAV			STRN			RBAK			LSHO			LUPA			LELB			LFRM			LWRA			LWRB			LFIN			RSHO			RUPA			RELB			RFRM			RWRA			RWRB			RFIN			LASI			RASI			LPSI			RPSI			LTHI			LKNE			LTIB			LANK			LHEE			LTOE			RTHI			RKNE			RTIB			RANK			RHEE			RTOE			*39			*40			*41			
		X1	Y1	Z1	X2	Y2	Z2	X3	Y3	Z3	X4	Y4	Z4	X5	Y5	Z5	X6	Y6	Z6	X7	Y7	Z7	X8	Y8	Z8	X9	Y9	Z9	X10	Y10	Z10	X11	Y11	Z11	X12	Y12	Z12	X13	Y13	Z13	X14	Y14	Z14	X15	Y15	Z15	X16	Y16	Z16	X17	Y17	Z17	X18	Y18	Z18	X19	Y19	Z19	X20	Y20	Z20	X21	Y21	Z21	X22	Y22	Z22	X23	Y23	Z23	X24	Y24	Z24	X25	Y25	Z25	X26	Y26	Z26	X27	Y27	Z27	X28	Y28	Z28	X29	Y29	Z29	X30	Y30	Z30	X31	Y31	Z31	X32	Y32	Z32	X33	Y33	Z33	X34	Y34	Z34	X35	Y35	Z35	X36	Y36	Z36	X37	Y37	Z37	X38	Y38	Z38	X39	Y39	Z39	X40	Y40	Z40	X41	Y41	Z41	X42	Y42	Z42	

67	0.660	1491.63330	14.57226	1678.02441	1593.36597	66.12679	1680.04517	1538.30518	-91.41337	1631.65210	1646.28076	-39.36493	1632.09790	1562.22522	-120.43764	1439.90466	1558.99927	-166.30638	1148.82935	1539.51099	19.78348	1369.24097	1526.71411	59.03850	1214.35266	1638.03259	-170.53519	1247.70911	1389.92651	-59.87331	1404.12610	1302.86218	-112.50746	1227.38611	1300.65002	-138.99506	1076.17224	1272.24121	-92.54868	970.23004	1277.99084	3.49739	868.11597	1265.73608	-53.53764	854.26862	1247.73511	0.44276	791.20660	1698.42334	-22.34959	1399.29407	1803.22351	-72.40645	1200.34631	1806.27039	-62.11844	1072.85852	1824.44080	-7.33954	960.53552	1789.48267	94.87010	867.90833	1828.97437	55.64154	854.90338	1827.07080	113.05334	793.06927	1437.55798	-5.42238	940.93103	1653.23010	7.27955	940.03326	1497.42639	-187.70926	951.62549	1641.62964	-179.29190	959.30756	1361.57593	47.57930	627.23755	1371.56372	72.65167	497.37076	1385.25171	-41.18331	352.48727	1449.50061	-146.30438	163.81335	1514.47278	-183.84619	152.99677	1417.40332	-46.90648	62.90178	1709.70117	-58.64904	606.22870	1685.23401	-55.37165	447.20093	1695.32410	-120.91704	282.45248	1647.49976	-163.25009	80.38954	1600.10156	-217.74025	46.64444	1641.29089	-25.72625	34.26534	1577.90051	47.58479	1714.50793	-3102.11548	1973.06421	1023.90277	-3140.74536	2012.46484	1022.00775 
68	0.670	1489.98730	27.50285	1677.64368	1591.53931	79.44133	1680.06238	1537.21375	-78.45170	1631.69653	1644.99585	-26.01403	1632.52039	1561.87317	-107.38468	1439.77258	1559.04309	-153.29245	1148.77563	1538.81653	32.64462	1369.15955	1526.29443	71.98785	1214.20569	1638.36365	-157.28932	1247.75537	1389.36646	-47.27288	1403.83191	1303.10486	-101.47532	1227.09827	1301.71350	-129.26244	1076.30005	1273.22437	-86.33109	969.16516	1278.50952	6.41671	863.82178	1266.46924	-51.16920	852.04395	1248.35547	0.50965	787.05951	1697.74817	-8.95473	1399.67090	1803.36719	-57.51079	1200.85034	1806.91406	-45.86963	1073.32300	1824.32495	12.22010	962.27325	1788.11670	116.96043	873.03351	1827.77734	78.43484	858.59680	1825.07788	137.82555	798.59326	1437.84155	7.77210	941.06171	1653.35669	19.29121	939.36389	1496.71753	-174.75571	951.84686	1641.10950	-167.12442	959.38788	1361.39771	63.79792	629.08960	1371.99780	90.60515	499.04742	1384.75354	-15.42970	346.26913	1449.64233	-109.70938	152.48741	1514.94104	-145.70773	138.42163	1414.74915	-3.54649	60.03279	1709.32117	-51.34204	606.11743	1685.14417	-51.02943	447.23700	1694.43518	-118.34410	283.18185	1646.56165	-162.72241	81.38345	1598.77576	-217.17690	48.09496	1641.31213	-25.45986	34.18342	1575.92371	60.87873	1714.49280	-3101.86401	1973.08582	1023.40387	-3140.79834	2012.54968	1022.12030 
69	0.680	1488.12939	40.26839	1677.09460	1589.54663	92.64930	1679.90417	1536.04993	-65.46450	1631.50208	1643.60681	-12.65065	1632.71375	1561.36853	-94.40908	1439.45923	1558.89856	-140.34653	1148.54504	1537.98047	45.58342	1368.83997	1525.77954	84.90887	1213.79907	1638.48596	-143.96275	1247.54736	1388.67542	-34.61083	1403.28979	1303.24377	-90.36751	1226.59717	1302.80029	-119.61150	1076.18713	1274.13074	-80.04210	968.04260	1278.86060	9.43756	859.73322	1267.10376	-48.60462	849.95453	1248.96655	0.70338	783.08301	1696.96204	4.36105	1399.80383	1803.39502	-42.56242	1201.13379	1807.42859	-29.59307	1073.53467	1824.09570	31.63405	963.87225	1786.63147	138.78610	878.07922	1826.70813	100.97182	862.29858	1823.12268	162.31522	804.28552	1437.79822	21.15531	940.88550	1653.40137	31.33720	938.62683	1495.87048	-161.72815	951.68195	1640.12976	-155.15913	958.76532	1361.27051	79.65579	630.45483	1372.44897	108.07980	500.00201	1384.15063	10.34297	339.68906	1449.40479	-72.09457	141.28371	1514.73267	-106.94422	124.12963	1411.78528	40.27184	57.56376	1709.21460	-43.79893	606.36432	1684.97644	-46.47790	447.27890	1693.70044	-115.65667	284.16620	1645.80957	-162.20050	82.52293	1597.92871	-216.26317	49.49873	1641.53455	-25.31632	34.29881	1573.89807	74.04508	1714.30750	-3102.01367	1973.03125	1023.92621	-3140.82715	2012.55933	1022.08685 
70	0.690	1486.28821	53.14025	1676.44531	1587.60803	105.81299	1679.60718	1534.67822	-52.57723	1631.08289	1642.10437	0.58990	1632.71826	1560.65771	-81.44721	1439.05554	1558.48474	-127.40678	1148.05383	1537.13171	58.63829	1368.33130	1525.26550	97.88851	1213.17493	1638.40552	-130.80934	1247.32202	1387.81079	-21.72802	1402.52942	1303.35608	-79.11165	1226.04211	1303.79004	-109.87562	1076.01221	1274.96619	-73.57055	966.97717	1279.16821	12.63807	855.82227	1267.84668	-45.74744	847.99762	1249.63025	1.18108	779.32996	1696.05762	17.70089	1399.74097	1803.21106	-27.63791	1201.17932	1807.89954	-13.28548	1073.62988	1823.74915	50.97536	965.43408	1785.06812	160.27480	883.01837	1825.40100	123.50423	866.08795	1821.02002	186.36758	809.78253	1437.35510	34.77987	940.47675	1653.41589	43.53378	937.80524	1494.82666	-148.72031	951.11853	1638.86023	-142.64568	958.14386	1361.15076	95.19884	631.29578	1372.84814	125.18054	500.45145	1383.59070	36.21832	333.11539	1448.47351	-33.51398	130.27153	1514.25818	-66.40981	110.43703	1409.04749	84.51109	56.12556	1708.79834	-36.40955	606.24841	1684.69934	-41.78332	447.20883	1693.08875	-113.05219	285.21042	1645.21167	-161.63187	83.77204	1597.06763	-215.96393	51.78464	1641.38501	-25.20720	34.06632	1571.82861	87.21533	1713.95557	-3102.04517	1972.99377	1023.85986	-3140.74316	2012.55249	1022.10339 
71	0.700	1484.42371	66.06818	1675.68860	1585.56946	118.96265	1679.15955	1533.19507	-39.54109	1630.52686	1640.48828	13.85522	1632.52588	1559.78235	-68.33268	1438.49963	1557.88489	-114.39987	1147.48779	1536.13000	71.70420	1367.61914	1524.69592	110.87344	1212.35217	1638.06860	-117.68118	1246.82910	1386.82300	-8.75730	1401.62415	1303.21716	-67.65968	1224.94714	1304.40271	-99.82368	1075.67566	1275.66846	-66.85679	965.91907	1279.54895	16.12834	852.09943	1268.55664	-42.65677	846.11560	1250.27014	1.90035	775.77002	1695.03748	30.98960	1399.47620	1802.85559	-12.68070	1201.08557	1808.30334	3.06797	1073.63513	1823.37939	70.23974	966.95209	1783.41211	181.47932	887.75934	1824.15454	145.40570	869.62805	1818.99438	210.09549	815.34106	1437.20166	48.25336	939.92792	1653.30847	55.73582	936.90845	1493.63257	-135.66028	950.31683	1637.78186	-130.49893	957.61743	1360.93164	110.38773	631.47369	1373.28296	141.62842	500.20270	1382.97620	61.96030	326.95468	1446.38660	5.37874	119.42208	1512.81982	-25.41494	97.02948	1406.25281	128.65271	54.91754	1708.40247	-28.77334	606.27570	1684.41821	-36.95707	447.31985	1692.41968	-110.55228	286.21722	1644.85510	-160.91360	85.01617	1596.56873	-215.17448	53.00930	1641.32019	-25.14321	33.90463	1569.70642	100.37141	1713.48804	-3101.98853	1973.13635	1023.57684	-3140.66772	2012.58960	1022.02991 
